<mxfile host="Electron" modified="2023-05-10T15:05:57.393Z" agent="Mozilla/5.0 (Windows NT 10.0; Win64; x64) AppleWebKit/537.36 (KHTML, like Gecko) draw.io/21.2.8 Chrome/112.0.5615.165 Electron/24.2.0 Safari/537.36" etag="lCK3ydGY69C7c4lb-YTa" version="21.2.8" type="device">
  <diagram name="Diagramma di contesto servizi esposti" id="V3p7Cl0ZjlEBznZd9UlH">
    <mxGraphModel dx="2284" dy="998" grid="0" gridSize="10" guides="1" tooltips="1" connect="1" arrows="1" fold="1" page="1" pageScale="1" pageWidth="850" pageHeight="1100" math="0" shadow="0">
      <root>
        <mxCell id="0" />
        <mxCell id="1" parent="0" />
        <mxCell id="JInAWHll1wEWlAwUuyvf-1" value="Nuova Piattaforma Appalti" style="swimlane;html=1;childLayout=stackLayout;startSize=20;rounded=0;shadow=0;comic=0;labelBackgroundColor=none;strokeWidth=1;fontFamily=Verdana;fontSize=12;align=center;" parent="1" vertex="1">
          <mxGeometry x="-393" y="31" width="940" height="1061" as="geometry">
            <mxRectangle x="-360" y="140" width="70" height="30" as="alternateBounds" />
          </mxGeometry>
        </mxCell>
        <mxCell id="JInAWHll1wEWlAwUuyvf-2" value="NPA" style="swimlane;html=1;startSize=20;strokeColor=#000000;" parent="JInAWHll1wEWlAwUuyvf-1" vertex="1">
          <mxGeometry y="20" width="341" height="1041" as="geometry">
            <mxRectangle y="20" width="40" height="1114" as="alternateBounds" />
          </mxGeometry>
        </mxCell>
        <mxCell id="JInAWHll1wEWlAwUuyvf-3" value="&lt;p style=&quot;margin:0px;margin-top:6px;text-align:center;&quot;&gt;&lt;b&gt;comunicaAppalto&lt;/b&gt;&lt;/p&gt;&lt;hr&gt;&lt;p style=&quot;margin:0px;margin-left:8px;&quot;&gt;+ crea-appalto (POST)&lt;/p&gt;&lt;p style=&quot;margin:0px;margin-left:8px;&quot;&gt;+ modifica-appalto (POST)&lt;/p&gt;&lt;p style=&quot;margin:0px;margin-left:8px;&quot;&gt;+ cancella-appalto (POST)&lt;/p&gt;&lt;p style=&quot;margin:0px;margin-left:8px;&quot;&gt;+ ricerca-appalto (GET)&lt;br&gt;+ consulta-appalto (GET)&lt;/p&gt;&lt;p style=&quot;margin:0px;margin-left:8px;&quot;&gt;+ verifica-appalto (POST)&lt;/p&gt;&lt;p style=&quot;margin: 0px 0px 0px 8px;&quot;&gt;+ conferma-appalto (POST)&lt;/p&gt;&lt;p style=&quot;margin: 0px 0px 0px 8px;&quot;&gt;+ recupera-cig (GET)&lt;/p&gt;&lt;p style=&quot;margin:0px;margin-left:8px;&quot;&gt;&lt;br&gt;&lt;/p&gt;" style="align=left;overflow=fill;html=1;dropTarget=0;" parent="JInAWHll1wEWlAwUuyvf-2" vertex="1">
          <mxGeometry x="61.5" y="357" width="220" height="163" as="geometry" />
        </mxCell>
        <mxCell id="JInAWHll1wEWlAwUuyvf-4" value="" style="shape=component;jettyWidth=8;jettyHeight=4;" parent="JInAWHll1wEWlAwUuyvf-3" vertex="1">
          <mxGeometry x="1" width="20" height="20" relative="1" as="geometry">
            <mxPoint x="-24" y="4" as="offset" />
          </mxGeometry>
        </mxCell>
        <mxCell id="JInAWHll1wEWlAwUuyvf-5" value="&lt;p style=&quot;margin:0px;margin-top:6px;text-align:center;&quot;&gt;&lt;b&gt;comunicaPostPubblicazione&lt;/b&gt;&lt;/p&gt;&lt;hr&gt;&lt;p style=&quot;border-color: var(--border-color); margin: 0px 0px 0px 8px;&quot;&gt;+ crea-scheda (POST)&lt;/p&gt;&lt;p style=&quot;border-color: var(--border-color); margin: 0px 0px 0px 8px;&quot;&gt;+ modifica-scheda (POST)&lt;/p&gt;&lt;p style=&quot;border-color: var(--border-color); margin: 0px 0px 0px 8px;&quot;&gt;+ cancella-scheda (POST)&lt;/p&gt;&lt;p style=&quot;border-color: var(--border-color); margin: 0px 0px 0px 8px;&quot;&gt;+ ricerca-scheda (GET)&lt;br style=&quot;border-color: var(--border-color);&quot;&gt;+ consulta-scheda (GET)&lt;/p&gt;&lt;p style=&quot;border-color: var(--border-color); margin: 0px 0px 0px 8px;&quot;&gt;&lt;span style=&quot;background-color: initial;&quot;&gt;+ verifica-scheda (POST)&lt;/span&gt;&lt;br&gt;&lt;/p&gt;&lt;p style=&quot;border-color: var(--border-color); margin: 0px 0px 0px 8px;&quot;&gt;+ conferma-scheda (POST)&lt;/p&gt;&lt;p style=&quot;border-color: var(--border-color); margin: 0px 0px 0px 8px;&quot;&gt;&lt;br&gt;&lt;/p&gt;" style="align=left;overflow=fill;html=1;dropTarget=0;" parent="JInAWHll1wEWlAwUuyvf-2" vertex="1">
          <mxGeometry x="61.5" y="750" width="219" height="157" as="geometry" />
        </mxCell>
        <mxCell id="JInAWHll1wEWlAwUuyvf-6" value="" style="shape=component;jettyWidth=8;jettyHeight=4;" parent="JInAWHll1wEWlAwUuyvf-5" vertex="1">
          <mxGeometry x="1" width="20" height="20" relative="1" as="geometry">
            <mxPoint x="-24" y="4" as="offset" />
          </mxGeometry>
        </mxCell>
        <mxCell id="JInAWHll1wEWlAwUuyvf-7" value="&lt;p style=&quot;margin:0px;margin-top:6px;text-align:center;&quot;&gt;&lt;b&gt;pianificazioneAppalto&lt;/b&gt;&lt;/p&gt;&lt;hr&gt;&lt;p style=&quot;border-color: var(--border-color); margin: 0px 0px 0px 8px;&quot;&gt;+ crea-piano (POST)&lt;/p&gt;&lt;p style=&quot;border-color: var(--border-color); margin: 0px 0px 0px 8px;&quot;&gt;+ modifica-piano (POST)&lt;/p&gt;&lt;p style=&quot;border-color: var(--border-color); margin: 0px 0px 0px 8px;&quot;&gt;+ cancella-piano (POST)&lt;/p&gt;&lt;p style=&quot;border-color: var(--border-color); margin: 0px 0px 0px 8px;&quot;&gt;+ ricerca-piano (GET)&lt;br style=&quot;border-color: var(--border-color);&quot;&gt;+ consulta-piano (GET)&lt;/p&gt;&lt;p style=&quot;border-color: var(--border-color); margin: 0px 0px 0px 8px;&quot;&gt;+ conferma-piano (POST)&lt;br style=&quot;border-color: var(--border-color);&quot;&gt;&lt;/p&gt;&lt;p style=&quot;border-color: var(--border-color); margin: 0px 0px 0px 8px;&quot;&gt;+ verifica-piano (POST)&lt;/p&gt;&lt;p style=&quot;border-color: var(--border-color); margin: 0px 0px 0px 8px;&quot;&gt;&lt;br&gt;&lt;/p&gt;&lt;p style=&quot;border-color: var(--border-color); margin: 0px 0px 0px 8px;&quot;&gt;&lt;br style=&quot;border-color: var(--border-color);&quot;&gt;&lt;/p&gt;" style="align=left;overflow=fill;html=1;dropTarget=0;" parent="JInAWHll1wEWlAwUuyvf-2" vertex="1">
          <mxGeometry x="59" y="60" width="220" height="140" as="geometry" />
        </mxCell>
        <mxCell id="JInAWHll1wEWlAwUuyvf-8" value="" style="shape=component;jettyWidth=8;jettyHeight=4;" parent="JInAWHll1wEWlAwUuyvf-7" vertex="1">
          <mxGeometry x="1" width="20" height="20" relative="1" as="geometry">
            <mxPoint x="-24" y="4" as="offset" />
          </mxGeometry>
        </mxCell>
        <mxCell id="JInAWHll1wEWlAwUuyvf-9" value="&lt;p style=&quot;margin:0px;margin-top:6px;text-align:center;&quot;&gt;&lt;b&gt;pubblicaAvviso&lt;/b&gt;&lt;/p&gt;&lt;hr&gt;&lt;p style=&quot;border-color: var(--border-color); margin: 0px 0px 0px 8px;&quot;&gt;&lt;span style=&quot;background-color: initial;&quot;&gt;+ pubblica-avviso (POST)&lt;/span&gt;&lt;/p&gt;&lt;p style=&quot;border-color: var(--border-color); margin: 0px 0px 0px 8px;&quot;&gt;&lt;font style=&quot;border-color: var(--border-color); background-color: rgb(255, 255, 255);&quot;&gt;+ modifica-avviso (POST)&lt;/font&gt;&lt;/p&gt;&lt;p style=&quot;border-color: var(--border-color); margin: 0px 0px 0px 8px;&quot;&gt;&lt;font style=&quot;border-color: var(--border-color); background-color: rgb(255, 255, 255);&quot;&gt;+ rettifica-avviso (POST)&lt;/font&gt;&lt;/p&gt;&lt;p style=&quot;border-color: var(--border-color); margin: 0px 0px 0px 8px;&quot;&gt;&lt;font style=&quot;border-color: var(--border-color); background-color: rgb(255, 255, 255);&quot;&gt;+ cancella-avviso (POST)&lt;/font&gt;&lt;/p&gt;&lt;p style=&quot;border-color: var(--border-color); margin: 0px 0px 0px 8px;&quot;&gt;+ ricerca-avviso (POST)&lt;br style=&quot;border-color: var(--border-color);&quot;&gt;&lt;/p&gt;&lt;p style=&quot;border-color: var(--border-color); margin: 0px 0px 0px 8px;&quot;&gt;+ consulta-avviso (GET)&lt;/p&gt;&lt;p style=&quot;border-color: var(--border-color); margin: 0px 0px 0px 8px;&quot;&gt;+ stato-avviso (GET)&lt;/p&gt;&lt;p style=&quot;border-color: var(--border-color); margin: 0px 0px 0px 8px;&quot;&gt;+ recupera-cig (GET)&lt;br&gt;&lt;/p&gt;&lt;p style=&quot;border-color: var(--border-color); margin: 0px 0px 0px 8px;&quot;&gt;+ consulta-rendering-avviso (GET)&lt;/p&gt;" style="align=left;overflow=fill;html=1;dropTarget=0;" parent="JInAWHll1wEWlAwUuyvf-2" vertex="1">
          <mxGeometry x="61.5" y="544" width="219" height="180" as="geometry" />
        </mxCell>
        <mxCell id="JInAWHll1wEWlAwUuyvf-10" value="" style="shape=component;jettyWidth=8;jettyHeight=4;" parent="JInAWHll1wEWlAwUuyvf-9" vertex="1">
          <mxGeometry x="1" width="20" height="20" relative="1" as="geometry">
            <mxPoint x="-24" y="4" as="offset" />
          </mxGeometry>
        </mxCell>
        <mxCell id="JInAWHll1wEWlAwUuyvf-11" value="&lt;p style=&quot;margin:0px;margin-top:6px;text-align:center;&quot;&gt;&lt;b&gt;serviziComuni&lt;/b&gt;&lt;/p&gt;&lt;hr&gt;&lt;p style=&quot;border-color: var(--border-color); margin: 0px 0px 0px 8px;&quot;&gt;&lt;span style=&quot;background-color: initial;&quot;&gt;+ stato-appalto (GET)&lt;/span&gt;&lt;br&gt;&lt;/p&gt;&lt;p style=&quot;border-color: var(--border-color); margin: 0px 0px 0px 8px;&quot;&gt;+ esito-operazione (GET)&lt;/p&gt;&lt;p style=&quot;border-color: var(--border-color); margin: 0px 0px 0px 8px;&quot;&gt;+ recupera-elenco-tipologiche (GET)&lt;/p&gt;&lt;p style=&quot;border-color: var(--border-color); margin: 0px 0px 0px 8px;&quot;&gt;+ recupera-tipologica (GET)&lt;br&gt;&lt;/p&gt;&lt;p style=&quot;border-color: var(--border-color); margin: 0px 0px 0px 8px;&quot;&gt;+ recupera-valore-tipologica (GET)&lt;br&gt;&lt;/p&gt;&lt;p style=&quot;border-color: var(--border-color); margin: 0px 0px 0px 8px;&quot;&gt;&lt;br style=&quot;border-color: var(--border-color);&quot;&gt;&lt;/p&gt;" style="align=left;overflow=fill;html=1;dropTarget=0;" parent="JInAWHll1wEWlAwUuyvf-2" vertex="1">
          <mxGeometry x="60.5" y="930" width="220" height="107" as="geometry" />
        </mxCell>
        <mxCell id="JInAWHll1wEWlAwUuyvf-12" value="" style="shape=component;jettyWidth=8;jettyHeight=4;" parent="JInAWHll1wEWlAwUuyvf-11" vertex="1">
          <mxGeometry x="1" width="20" height="20" relative="1" as="geometry">
            <mxPoint x="-24" y="4" as="offset" />
          </mxGeometry>
        </mxCell>
        <mxCell id="JInAWHll1wEWlAwUuyvf-13" value="&lt;p style=&quot;margin:0px;margin-top:6px;text-align:center;&quot;&gt;&lt;b&gt;gestioneUtenti&lt;/b&gt;&lt;br&gt;&lt;/p&gt;&lt;hr&gt;&lt;p style=&quot;border-color: var(--border-color); margin: 0px 0px 0px 8px;&quot;&gt;&lt;span style=&quot;background-color: initial;&quot;&gt;+ presa-carico (POST)&lt;/span&gt;&lt;br&gt;&lt;/p&gt;&lt;p style=&quot;border-color: var(--border-color); margin: 0px 0px 0px 8px;&quot;&gt;+ ricerca-soggetto (GET)&lt;/p&gt;&lt;p style=&quot;border-color: var(--border-color); margin: 0px 0px 0px 8px;&quot;&gt;+&amp;nbsp;aggiungi-soggetto (POST)&lt;/p&gt;&lt;p style=&quot;border-color: var(--border-color); margin: 0px 0px 0px 8px;&quot;&gt;+ elimina-soggetto (&lt;span style=&quot;background-color: initial;&quot;&gt;POST)&lt;/span&gt;&lt;/p&gt;&lt;p style=&quot;border-color: var(--border-color); margin: 0px 0px 0px 8px;&quot;&gt;&lt;br style=&quot;border-color: var(--border-color);&quot;&gt;&lt;/p&gt;" style="align=left;overflow=fill;html=1;dropTarget=0;" parent="JInAWHll1wEWlAwUuyvf-2" vertex="1">
          <mxGeometry x="59" y="227" width="224" height="104" as="geometry" />
        </mxCell>
        <mxCell id="JInAWHll1wEWlAwUuyvf-14" value="" style="shape=component;jettyWidth=8;jettyHeight=4;" parent="JInAWHll1wEWlAwUuyvf-13" vertex="1">
          <mxGeometry x="1" width="20" height="20" relative="1" as="geometry">
            <mxPoint x="-24" y="4" as="offset" />
          </mxGeometry>
        </mxCell>
        <mxCell id="JInAWHll1wEWlAwUuyvf-15" value="FVOE" style="swimlane;html=1;startSize=20;" parent="JInAWHll1wEWlAwUuyvf-1" vertex="1">
          <mxGeometry x="341" y="20" width="330" height="1041" as="geometry">
            <mxRectangle x="341" y="20" width="40" height="1114" as="alternateBounds" />
          </mxGeometry>
        </mxCell>
        <mxCell id="JInAWHll1wEWlAwUuyvf-16" value="&lt;p style=&quot;margin:0px;margin-top:6px;text-align:center;&quot;&gt;&lt;b&gt;FVOE - Business SA&lt;/b&gt;&lt;/p&gt;&lt;hr&gt;&amp;nbsp; +&amp;nbsp;&lt;span style=&quot;background-color: initial;&quot;&gt;richiesta-accesso-fvoe (POST)&lt;br&gt;&amp;nbsp; + verifica-richiesta-accesso-fvoe (GET)&lt;br&gt;&lt;/span&gt;&lt;span style=&quot;background-color: initial;&quot;&gt;&amp;nbsp; + ricerca-documenti-fvoe (GET)&lt;br&gt;&lt;/span&gt;&amp;nbsp; +&amp;nbsp;&lt;span style=&quot;background-color: initial;&quot;&gt;recupera-documento-fvoe (GET)&lt;br&gt;&lt;/span&gt;&amp;nbsp; +&amp;nbsp;&lt;span style=&quot;background-color: initial;&quot;&gt;richiedi-documento (GET)&lt;/span&gt;&lt;span style=&quot;background-color: initial;&quot;&gt;&lt;br&gt;&lt;/span&gt;&amp;nbsp; +&amp;nbsp;&lt;span style=&quot;background-color: initial;&quot;&gt;recupera-storico-documento-fvoe (GET)&lt;/span&gt;&lt;br&gt;&amp;nbsp; +&amp;nbsp;&lt;span style=&quot;background-color: initial;&quot;&gt;recupero-anagrafica-oe (GET)&lt;/span&gt;&lt;br&gt;&lt;div&gt;&lt;span style=&quot;border-color: var(--border-color); background-color: rgb(204, 255, 153);&quot;&gt;&lt;br&gt;&lt;/span&gt;&lt;/div&gt;" style="align=left;overflow=fill;html=1;dropTarget=0;" parent="JInAWHll1wEWlAwUuyvf-15" vertex="1">
          <mxGeometry x="31" y="60" width="245" height="153" as="geometry" />
        </mxCell>
        <mxCell id="JInAWHll1wEWlAwUuyvf-17" value="" style="shape=component;jettyWidth=8;jettyHeight=4;" parent="JInAWHll1wEWlAwUuyvf-16" vertex="1">
          <mxGeometry x="1" width="20" height="20" relative="1" as="geometry">
            <mxPoint x="-24" y="4" as="offset" />
          </mxGeometry>
        </mxCell>
        <mxCell id="JInAWHll1wEWlAwUuyvf-18" value="FVA" style="swimlane;html=1;startSize=20;" parent="JInAWHll1wEWlAwUuyvf-1" vertex="1">
          <mxGeometry x="671" y="20" width="269" height="1041" as="geometry" />
        </mxCell>
        <mxCell id="JInAWHll1wEWlAwUuyvf-19" value="&lt;p style=&quot;margin:0px;margin-top:6px;text-align:center;&quot;&gt;&lt;b&gt;FVA&lt;/b&gt;&lt;/p&gt;&lt;hr&gt;&lt;p style=&quot;border-color: var(--border-color); margin: 0px 0px 0px 8px;&quot;&gt;&lt;span style=&quot;background-color: initial;&quot;&gt;+ ricerca-fascicoli-fva (GET)&lt;/span&gt;&lt;br&gt;&lt;/p&gt;&lt;p style=&quot;border-color: var(--border-color); margin: 0px 0px 0px 8px;&quot;&gt;+ recupera-fascicolo-fva (GET)&lt;/p&gt;&lt;p style=&quot;border-color: var(--border-color); margin: 0px 0px 0px 8px;&quot;&gt;+ ricerca-documenti-fva (GET)&lt;/p&gt;&lt;p style=&quot;border-color: var(--border-color); margin: 0px 0px 0px 8px;&quot;&gt;+ recupera-documento-fva (GET)&lt;/p&gt;&lt;p style=&quot;border-color: var(--border-color); margin: 0px 0px 0px 8px;&quot;&gt;+ recupera-storico-fascicolo-fva (GET)&lt;/p&gt;&lt;p style=&quot;border-color: var(--border-color); margin: 0px 0px 0px 8px;&quot;&gt;+ recupera-storico-documento-fva (GET)&lt;/p&gt;&lt;p style=&quot;border-color: var(--border-color); margin: 0px 0px 0px 8px;&quot;&gt;&lt;br style=&quot;border-color: var(--border-color);&quot;&gt;&lt;/p&gt;" style="align=left;overflow=fill;html=1;dropTarget=0;" parent="JInAWHll1wEWlAwUuyvf-18" vertex="1">
          <mxGeometry x="18" y="60" width="230" height="130" as="geometry" />
        </mxCell>
        <mxCell id="JInAWHll1wEWlAwUuyvf-20" value="" style="shape=component;jettyWidth=8;jettyHeight=4;" parent="JInAWHll1wEWlAwUuyvf-19" vertex="1">
          <mxGeometry x="1" width="20" height="20" relative="1" as="geometry">
            <mxPoint x="-24" y="4" as="offset" />
          </mxGeometry>
        </mxCell>
      </root>
    </mxGraphModel>
  </diagram>
</mxfile>
